<?xml version="1.0" standalone="no"?>
<!DOCTYPE svg PUBLIC "-//W3C//DTD SVG 20010904//EN"
 "http://www.w3.org/TR/2001/REC-SVG-20010904/DTD/svg10.dtd">
<svg version="1.0" xmlns="http://www.w3.org/2000/svg"
  viewBox="0 0 396.000000 388.000000"
 preserveAspectRatio="xMidYMid meet">
<metadata>
Created by potrace 1.16, written by Peter Selinger 2001-2019
</metadata>
<g transform="translate(0.000000,388.000000) scale(0.100000,-0.100000)"
fill="#ff0008" stroke="none">
<path d="M375 3802 l-150 -77 73 -3 72 -3 0 -474 0 -475 -40 0 c-37 0 -40 -2
-49 -37 -50 -201 -91 -807 -65 -965 l7 -38 1192 0 1192 0 7 38 c26 158 -15
764 -65 965 l-10 37 -919 0 -920 0 0 475 0 475 60 0 c33 0 60 3 60 8 0 6 -284
153 -293 151 -1 0 -69 -35 -152 -77z m1148 -1833 c34 -37 34 -51 -2 -91 -22
-25 -36 -32 -66 -32 -30 0 -44 7 -66 32 -35 39 -36 51 -8 86 42 54 95 56 142
5z"/>
<path d="M110 2738 c-78 -127 -115 -425 -107 -860 7 -362 37 -571 100 -683
l23 -40 142 -3 142 -3 0 -569 0 -570 90 0 90 0 0 570 0 570 840 0 840 0 0
-384 0 -385 -29 -20 c-96 -69 -93 -251 6 -327 51 -39 152 -46 218 -14 129 63
143 268 24 347 l-39 26 0 378 0 379 104 0 c57 0 118 -3 135 -6 l31 -6 0 -104
0 -104 600 0 c561 0 600 1 609 18 42 80 42 654 0 735 -9 16 -45 17 -534 17
l-525 0 0 244 c0 400 -40 679 -113 787 l-23 34 -91 3 -91 3 14 -63 c7 -35 22
-128 33 -208 19 -137 23 -206 36 -627 l6 -173 -1226 0 -1226 0 6 173 c13 421
17 490 36 627 11 80 26 173 33 208 l14 62 -74 0 c-73 0 -75 -1 -94 -32z"/>
</g>
</svg>
